name C:\Users\r0593348\3dpredictsim\Results\MidTarsalJoint\Fal_s1_bCst_PF_Natali2010_ls150_MT_k50_d020_MTP_T5_ig21.mot
datacolumns 128
datarows 4
range 0.57919865 0.61395057
endheader
time	pelvis_tilt	pelvis_list	pelvis_rotation	pelvis_tx	pelvis_ty	pelvis_tz	hip_flexion_l	hip_adduction_l	hip_rotation_l	hip_flexion_r	hip_adduction_r	hip_rotation_r	knee_angle_l	knee_angle_r	ankle_angle_l	ankle_angle_r	subtalar_angle_l	subtalar_angle_r	mtj_angle_l	mtj_angle_r	mtp_angle_l	mtp_angle_r	lumbar_extension	lumbar_bending	lumbar_rotation	arm_flex_l	arm_add_l	arm_rot_l	arm_flex_r	arm_add_r	arm_rot_r	elbow_flex_l	elbow_flex_r	pro_sup_l	pro_sup_r	glut_med1_l/activation	glut_med2_l/activation	glut_med3_l/activation	glut_min1_l/activation	glut_min2_l/activation	glut_min3_l/activation	semimem_l/activation	semiten_l/activation	bifemlh_l/activation	bifemsh_l/activation	sar_l/activation	add_long_l/activation	add_brev_l/activation	add_mag1_l/activation	add_mag2_l/activation	add_mag3_l/activation	tfl_l/activation	pect_l/activation	grac_l/activation	glut_max1_l/activation	glut_max2_l/activation	glut_max3_l/activation	iliacus_l/activation	psoas_l/activation	quad_fem_l/activation	gem_l/activation	peri_l/activation	rect_fem_l/activation	vas_med_l/activation	vas_int_l/activation	vas_lat_l/activation	med_gas_l/activation	lat_gas_l/activation	soleus_l/activation	tib_post_l/activation	flex_dig_l/activation	flex_hal_l/activation	tib_ant_l/activation	per_brev_l/activation	per_long_l/activation	per_tert_l/activation	ext_dig_l/activation	ext_hal_l/activation	ercspn_l/activation	intobl_l/activation	extobl_l/activation	glut_med1_r/activation	glut_med2_r/activation	glut_med3_r/activation	glut_min1_r/activation	glut_min2_r/activation	glut_min3_r/activation	semimem_r/activation	semiten_r/activation	bifemlh_r/activation	bifemsh_r/activation	sar_r/activation	add_long_r/activation	add_brev_r/activation	add_mag1_r/activation	add_mag2_r/activation	add_mag3_r/activation	tfl_r/activation	pect_r/activation	grac_r/activation	glut_max1_r/activation	glut_max2_r/activation	glut_max3_r/activation	iliacus_r/activation	psoas_r/activation	quad_fem_r/activation	gem_r/activation	peri_r/activation	rect_fem_r/activation	vas_med_r/activation	vas_int_r/activation	vas_lat_r/activation	med_gas_r/activation	lat_gas_r/activation	soleus_r/activation	tib_post_r/activation	flex_dig_r/activation	flex_hal_r/activation	tib_ant_r/activation	per_brev_r/activation	per_long_r/activation	per_tert_r/activation	ext_dig_r/activation	ext_hal_r/activation	ercspn_r/activation	intobl_r/activation	extobl_r/activation	
          0.57919865	         -2.92993986	          2.57290248	         -6.17192681	          0.72399832	          0.91581669	          0.00131875	         29.66089299	          3.77752474	         -0.75750632	        -16.03773280	         -2.13959084	          6.33236446	        -11.20341339	        -10.41713517	          4.54772232	         -5.83249633	         -6.81324220	         12.06903298	         -0.07947049	         13.84461917	         -0.77304173	         -1.53649168	         -1.49210946	         -0.58397776	          2.38025798	         -7.31497516	        -13.56884841	          4.94000729	          5.05639866	        -13.45367338	         15.79534319	         17.84361732	         36.96623044	         86.51662706	         86.51662706	          0.10999116	          0.05965328	          0.05000063	          0.08042742	          0.05965407	          0.05004919	          0.20758100	          0.05258241	          0.06636038	          0.05000147	          0.05000158	          0.10839975	          0.21507687	          0.20250405	          0.17206410	          0.11727500	          0.05000069	          0.05043043	          0.08893216	          0.05001343	          0.05000991	          0.12782771	          0.05966440	          0.05108568	          0.45854298	          0.17389460	          0.13816721	          0.07117039	          0.15460753	          0.15418024	          0.13363712	          0.05000003	          0.05000007	          0.05000001	          0.05000032	          0.05000138	          0.05000101	          0.49698180	          0.25863971	          0.18982215	          0.24941374	          0.46521965	          0.10087735	          0.05502168	          0.11912786	          0.10639619	          0.26487199	          0.10131972	          0.07119502	          0.26016977	          0.19487734	          0.11311981	          0.05000348	          0.05000062	          0.05000058	          0.05068552	          0.11039318	          0.05713967	          0.05261300	          0.05001038	          0.05001481	          0.05000214	          0.29629118	          0.06749487	          0.05004820	          0.05001751	          0.05000505	          0.05000339	          0.38390947	          0.59258299	          0.05000361	          0.05004395	          0.05966113	          0.25144131	          0.05000933	          0.05001286	          0.09255410	          0.29182996	          0.40380944	          0.39987495	          0.25595977	          0.21092273	          0.29476828	          0.05000012	          0.06420905	          0.16914706	          0.05000078	          0.05000018	          0.05000064	          0.05000007	          0.07099161	          0.05000007	
          0.59078263	         -2.92703284	          2.67447829	         -6.48002369	          0.74145697	          0.91456922	          0.00111836	         29.00765400	          4.08580909	         -0.46741357	        -15.97579966	         -2.46508397	          6.06611325	        -11.67699736	        -12.24954711	          3.78904536	         -6.23527643	         -7.17451044	         12.88320494	         -0.16646872	         12.88980556	         -0.81207387	         -0.85711786	         -1.28692911	         -0.78456056	          2.44188483	         -8.22758692	        -13.56764822	          4.94066174	          4.81204431	        -13.45938188	         16.16854060	         17.39642129	         38.13114377	         86.51662706	         86.51662706	          0.16707616	          0.05000023	          0.05000353	          0.06741245	          0.05000077	          0.05000042	          0.18386642	          0.05000064	          0.07342864	          0.05000029	          0.05001020	          0.09085842	          0.18029237	          0.16975741	          0.14422120	          0.11871027	          0.05000100	          0.05968021	          0.09996565	          0.05000223	          0.12922262	          0.11559562	          0.05000964	          0.05000107	          0.38434040	          0.14575458	          0.13438816	          0.05965340	          0.12958854	          0.12923040	          0.11201162	          0.05684746	          0.05965064	          0.05518941	          0.05965039	          0.05000784	          0.05001456	          0.41655867	          0.25783694	          0.15910508	          0.20905298	          0.50498788	          0.08455310	          0.05000005	          0.12163842	          0.08917880	          0.26169123	          0.08492386	          0.05967405	          0.21806903	          0.16334181	          0.09481447	          0.05000722	          0.05000127	          0.05000113	          0.05000036	          0.09252996	          0.08503347	          0.05286962	          0.05964701	          0.05075623	          0.05965219	          0.24834500	          0.05663324	          0.05001027	          0.05005089	          0.05003698	          0.05004435	          0.34858908	          0.57344799	          0.05000159	          0.05000196	          0.05000665	          0.21075231	          0.09504220	          0.08720157	          0.09479919	          0.24460510	          0.33846437	          0.37377440	          0.23086006	          0.17679797	          0.24709146	          0.05000016	          0.06226677	          0.19526296	          0.05000055	          0.05000021	          0.05000074	          0.05000029	          0.05965301	          0.05965337	
          0.60236660	         -2.92196671	          2.77136874	         -6.75110748	          0.75913811	          0.91347328	          0.00091317	         28.25580004	          4.35669776	         -0.17029031	        -15.83434534	         -2.78229829	          5.80461276	        -12.22109076	        -14.18578025	          3.06566686	         -6.73048882	         -7.53349245	         13.60671235	         -0.33013321	         11.61253486	         -0.76703400	          0.13563401	         -1.07169164	         -0.99016659	          2.49275421	         -9.14311428	        -13.56486147	          4.98434214	          4.50695648	        -13.46478074	         16.48945737	         16.99170851	         39.23376946	         86.51662706	         86.51662706	          0.25976787	          0.23534828	          0.25673845	          0.17629108	          0.16555373	          0.12654545	          0.15411255	          0.07341644	          0.06154635	          0.07978889	          0.05000258	          0.07615551	          0.15111696	          0.14228726	          0.12088427	          0.13730291	          0.05000102	          0.05002306	          0.08749584	          0.18156973	          0.16251771	          0.12598667	          0.05000023	          0.05000031	          0.32214527	          0.12216835	          0.11264197	          0.05000027	          0.10861830	          0.10831816	          0.09388572	          0.05000015	          0.05000036	          0.05000004	          0.05000011	          0.05000048	          0.05000052	          0.53590171	          0.33278077	          0.18735847	          0.47116126	          0.52827612	          0.21269280	          0.06459518	          0.12085109	          0.07474758	          0.27272838	          0.07118126	          0.05001747	          0.34817969	          0.13690958	          0.07947143	          0.05000925	          0.05000040	          0.05000034	          0.05000070	          0.07783125	          0.07127368	          0.05000082	          0.05000065	          0.05000102	          0.05000108	          0.26747466	          0.05007829	          0.05000054	          0.05000433	          0.05000072	          0.05000065	          0.31259124	          0.54812300	          0.05000018	          0.05000102	          0.05001874	          0.20525031	          0.07966288	          0.07309106	          0.14320301	          0.20502226	          0.28369297	          0.31799900	          0.19446464	          0.14818961	          0.20710786	          0.05000007	          0.12150356	          0.19245110	          0.05000051	          0.05000012	          0.05000042	          0.05361726	          0.05000003	          0.05000013	
          0.61395057	         -2.91573035	          2.85366643	         -6.97989721	          0.77686003	          0.91262468	          0.00068164	         27.51786655	          4.62357183	          0.11311263	        -15.59291674	         -3.08110166	          5.56106343	        -12.80296975	        -16.22240005	          2.37766362	         -7.31875917	         -7.89204478	         14.24699209	         -0.41998882	          9.95283607	         -0.71227739	          1.48265248	         -0.86395232	         -1.19200815	          2.53455808	        -10.01993136	        -13.55628469	          5.06747701	          4.17248534	        -13.47313671	         16.78123093	         16.61184116	         40.24617856	         86.51662706	         86.51662706	          0.34675541	          0.31944807	          0.33987429	          0.15269001	          0.13878325	          0.18366035	          0.12917361	          0.07186845	          0.06311730	          0.06687738	          0.05000092	          0.06383208	          0.12666945	          0.15619877	          0.16459393	          0.15791690	          0.05000085	          0.05008435	          0.08551622	          0.22730307	          0.19455526	          0.15395653	          0.05000041	          0.05000037	          0.27001475	          0.10239890	          0.15770506	          0.05000023	          0.16881981	          0.17305609	          0.14601264	          0.05000012	          0.05000026	          0.05000004	          0.05000016	          0.05000067	          0.05000056	          0.59956999	          0.27892916	          0.15703954	          0.45166438	          0.56376815	          0.25548321	          0.07883735	          0.10129466	          0.06265168	          0.29344923	          0.05966255	          0.05000714	          0.29183719	          0.11475461	          0.06661124	          0.05001085	          0.05000062	          0.05000064	          0.05000042	          0.06523976	          0.09470262	          0.05000168	          0.05000352	          0.05001002	          0.05000151	          0.22419835	          0.05005607	          0.05001062	          0.05005887	          0.05003262	          0.05000944	          0.26200687	          0.50955408	          0.05001663	          0.05001943	          0.05000055	          0.17203605	          0.09553759	          0.09857057	          0.12003255	          0.17184484	          0.23778481	          0.26653929	          0.16299580	          0.12420945	          0.17359324	          0.05000032	          0.12451158	          0.19789009	          0.05000039	          0.08755489	          0.05000083	          0.07293069	          0.05000008	          0.05000011	
